<svg xmlns="http://www.w3.org/2000/svg" xmlns:xlink="http://www.w3.org/1999/xlink" width="500" zoomAndPan="magnify" viewBox="0 0 375 374.999991" height="500" preserveAspectRatio="xMidYMid meet" version="1.0"><path fill="#000000" d="M 228.929688 46.074219 C 225.675781 46.210938 221.953125 46.742188 221.269531 47.167969 C 221.179688 47.222656 219.921875 47.511719 218.476562 47.816406 C 217.011719 48.117188 215.308594 48.589844 214.632812 48.871094 C 213.195312 49.476562 212.960938 49.5625 211.484375 50.019531 C 210.859375 50.210938 210.023438 50.597656 209.625 50.882812 C 209.226562 51.164062 208.363281 51.605469 207.707031 51.863281 C 207.050781 52.121094 206.253906 52.535156 205.941406 52.789062 C 205.625 53.039062 204.917969 53.457031 204.367188 53.71875 C 203.820312 53.980469 202.941406 54.53125 202.417969 54.9375 C 201.894531 55.347656 201.238281 55.777344 200.957031 55.894531 C 200.679688 56.011719 200.171875 56.359375 199.828125 56.667969 C 199.484375 56.972656 198.914062 57.410156 198.558594 57.632812 C 198.203125 57.859375 196.648438 59.265625 195.105469 60.757812 C 192.523438 63.257812 191.332031 64.5625 189.964844 66.367188 C 189.683594 66.742188 189.167969 67.375 188.816406 67.773438 C 188.464844 68.171875 188.050781 68.753906 187.890625 69.066406 C 187.734375 69.375 187.191406 70.25 186.683594 71.003906 C 186.175781 71.757812 185.675781 72.636719 185.574219 72.957031 C 185.46875 73.277344 185.195312 73.785156 184.96875 74.089844 C 184.46875 74.757812 183.613281 76.40625 183.613281 76.703125 C 183.613281 76.820312 183.257812 77.605469 182.820312 78.445312 C 182.351562 79.351562 181.886719 80.5625 181.671875 81.425781 C 181.472656 82.226562 181.144531 83.183594 180.945312 83.558594 C 180.398438 84.5625 179.941406 86.234375 179.734375 87.96875 C 179.632812 88.8125 179.417969 90.085938 179.257812 90.796875 C 178.609375 93.632812 178.535156 94.460938 178.542969 98.792969 C 178.546875 102.960938 178.597656 103.558594 179.167969 106.144531 C 179.304688 106.765625 179.523438 108.074219 179.652344 109.050781 C 180.023438 111.84375 180.164062 112.414062 180.859375 113.886719 C 181.21875 114.644531 181.511719 115.378906 181.511719 115.511719 C 181.511719 116.117188 182.175781 118.042969 182.769531 119.148438 C 183.125 119.816406 183.542969 120.757812 183.699219 121.242188 C 183.855469 121.722656 184.3125 122.628906 184.714844 123.25 C 185.113281 123.871094 185.582031 124.746094 185.753906 125.195312 C 185.921875 125.648438 186.191406 126.160156 186.347656 126.339844 C 186.507812 126.515625 186.96875 127.183594 187.375 127.820312 C 187.78125 128.457031 188.359375 129.253906 188.65625 129.597656 C 188.957031 129.9375 189.484375 130.617188 189.824219 131.105469 C 190.167969 131.59375 190.542969 132.050781 190.660156 132.121094 C 190.78125 132.191406 191.109375 132.589844 191.394531 133.011719 C 192.332031 134.394531 196.625 138.476562 198.691406 139.953125 C 199.03125 140.195312 199.6875 140.703125 200.144531 141.078125 C 200.605469 141.449219 201.371094 141.996094 201.84375 142.289062 C 202.316406 142.578125 203.007812 143.054688 203.378906 143.339844 C 203.75 143.625 204.492188 144.070312 205.03125 144.328125 C 205.574219 144.582031 206.4375 145.0625 206.949219 145.390625 C 207.464844 145.722656 208.40625 146.175781 209.039062 146.398438 C 209.671875 146.625 210.636719 147.054688 211.179688 147.355469 C 211.722656 147.65625 212.8125 148.054688 213.601562 148.242188 C 214.390625 148.429688 215.691406 148.867188 216.492188 149.210938 C 218.074219 149.898438 219.421875 150.242188 221.175781 150.410156 C 221.796875 150.46875 223.035156 150.695312 223.921875 150.914062 C 226.425781 151.527344 229.164062 151.785156 233.132812 151.78125 C 237.066406 151.773438 238.222656 151.664062 240.726562 151.0625 C 241.660156 150.835938 243.242188 150.539062 244.242188 150.402344 C 246.355469 150.109375 247.578125 149.789062 248.480469 149.285156 C 248.835938 149.089844 249.597656 148.800781 250.175781 148.644531 C 252.363281 148.058594 253.347656 147.714844 253.9375 147.328125 C 254.269531 147.109375 255.164062 146.707031 255.921875 146.429688 C 256.683594 146.15625 257.644531 145.699219 258.0625 145.417969 C 258.480469 145.132812 259.402344 144.628906 260.113281 144.292969 C 260.824219 143.960938 261.585938 143.515625 261.808594 143.300781 C 262.03125 143.089844 262.546875 142.769531 262.953125 142.589844 C 263.359375 142.410156 264.019531 141.972656 264.421875 141.621094 C 264.824219 141.265625 265.558594 140.664062 266.046875 140.28125 C 267.929688 138.820312 269.714844 137.222656 271.617188 135.289062 C 273.355469 133.527344 274.242188 132.480469 277.230469 128.683594 C 277.613281 128.191406 278.046875 127.511719 278.1875 127.167969 C 278.332031 126.824219 278.664062 126.300781 278.925781 126.003906 C 279.535156 125.308594 280.136719 124.25 280.390625 123.429688 C 280.5 123.074219 280.722656 122.636719 280.886719 122.457031 C 281.203125 122.109375 282.167969 120.089844 282.167969 119.777344 C 282.167969 119.671875 282.484375 118.890625 282.875 118.035156 C 283.265625 117.183594 283.746094 115.792969 283.941406 114.949219 C 284.140625 114.105469 284.539062 112.652344 284.835938 111.71875 C 285.949219 108.191406 286.261719 105.394531 286.277344 98.875 C 286.289062 92.5 285.957031 89.3125 284.988281 86.433594 C 284.691406 85.542969 284.328125 84.273438 284.183594 83.605469 C 283.816406 81.910156 283.308594 80.375 282.941406 79.851562 C 282.769531 79.605469 282.410156 78.734375 282.144531 77.910156 C 281.878906 77.089844 281.441406 76.070312 281.167969 75.648438 C 280.898438 75.222656 280.425781 74.359375 280.121094 73.722656 C 279.816406 73.085938 279.359375 72.328125 279.101562 72.035156 C 278.84375 71.742188 278.488281 71.175781 278.3125 70.777344 C 278.136719 70.382812 277.515625 69.429688 276.929688 68.660156 C 276.34375 67.894531 275.867188 67.214844 275.867188 67.148438 C 275.867188 67.082031 275.582031 66.734375 275.238281 66.375 C 274.890625 66.015625 274.425781 65.4375 274.199219 65.089844 C 273.445312 63.925781 267.257812 57.917969 266.8125 57.917969 C 266.734375 57.917969 266.304688 57.59375 265.859375 57.199219 C 265.414062 56.804688 264.519531 56.136719 263.871094 55.71875 C 263.226562 55.300781 262.445312 54.765625 262.132812 54.527344 C 261.820312 54.289062 261.242188 53.96875 260.847656 53.8125 C 260.453125 53.660156 259.871094 53.328125 259.558594 53.082031 C 258.84375 52.523438 257.453125 51.777344 257.121094 51.777344 C 256.984375 51.777344 256.351562 51.453125 255.714844 51.058594 C 255.078125 50.660156 254.171875 50.21875 253.699219 50.074219 C 252.15625 49.605469 251.402344 49.324219 250.417969 48.863281 C 249.878906 48.605469 248.414062 48.1875 247.105469 47.914062 C 245.820312 47.640625 244.253906 47.277344 243.632812 47.101562 C 240.34375 46.171875 235.152344 45.808594 228.929688 46.074219 M 72.367188 83.492188 C 70.351562 84.285156 68.671875 85.652344 67.859375 87.160156 C 67.4375 87.941406 67.371094 88.246094 67.316406 89.664062 C 67.214844 92.335938 67.394531 92.917969 68.863281 94.707031 C 69.550781 95.546875 70.238281 96.457031 70.390625 96.730469 C 70.921875 97.695312 70.207031 98.191406 68.015625 98.382812 C 66.179688 98.546875 64.804688 98.859375 63.414062 99.433594 C 62.753906 99.710938 61.484375 100.085938 60.597656 100.269531 C 59.441406 100.507812 58.617188 100.800781 57.683594 101.300781 C 56.96875 101.683594 55.914062 102.113281 55.34375 102.257812 C 54.769531 102.402344 53.933594 102.722656 53.484375 102.972656 C 51.972656 103.808594 51.703125 103.941406 50.621094 104.375 C 50.03125 104.613281 49.199219 105.054688 48.773438 105.355469 C 48.351562 105.65625 47.917969 105.902344 47.8125 105.902344 C 47.523438 105.902344 45.796875 106.851562 45.128906 107.378906 C 44.800781 107.636719 44.257812 107.960938 43.917969 108.105469 C 43.574219 108.246094 42.96875 108.632812 42.570312 108.960938 C 42.167969 109.289062 41.554688 109.730469 41.207031 109.941406 C 40.859375 110.152344 40.167969 110.660156 39.671875 111.070312 C 39.175781 111.476562 38.519531 111.984375 38.207031 112.199219 C 37.894531 112.410156 37.269531 112.914062 36.8125 113.320312 C 36.355469 113.726562 35.433594 114.53125 34.761719 115.109375 C 32.152344 117.347656 29.984375 119.550781 27.625 122.378906 C 27.089844 123.019531 26.394531 123.84375 26.074219 124.214844 C 25.757812 124.582031 25.203125 125.320312 24.84375 125.855469 C 24.488281 126.386719 23.921875 127.148438 23.59375 127.542969 C 23.265625 127.9375 22.828125 128.589844 22.621094 128.996094 C 22.414062 129.402344 22.085938 129.875 21.890625 130.054688 C 21.695312 130.230469 21.328125 130.796875 21.070312 131.316406 C 20.8125 131.835938 20.28125 132.746094 19.890625 133.339844 C 19.496094 133.933594 19.085938 134.707031 18.972656 135.0625 C 18.863281 135.417969 18.421875 136.277344 17.992188 136.96875 C 17.5625 137.660156 17.136719 138.503906 17.046875 138.851562 C 16.820312 139.683594 16.167969 141.144531 15.683594 141.890625 C 15.46875 142.222656 15.144531 143.101562 14.960938 143.84375 C 14.777344 144.585938 14.492188 145.421875 14.324219 145.703125 C 13.765625 146.644531 13.335938 147.976562 13.019531 149.765625 C 12.84375 150.742188 12.523438 152.125 12.300781 152.835938 C 11.71875 154.703125 11.417969 156.253906 11.144531 158.777344 C 10.835938 161.628906 10.605469 162.007812 8.902344 162.429688 C 7.269531 162.835938 5.523438 164.367188 4.550781 166.246094 C 3.902344 167.492188 3.878906 167.589844 3.878906 169.074219 C 3.875 170.492188 3.914062 170.6875 4.414062 171.6875 C 5.054688 172.960938 6.453125 174.570312 7.425781 175.136719 C 7.898438 175.414062 8.539062 175.59375 9.46875 175.703125 C 10.363281 175.8125 35.539062 175.851562 83.769531 175.824219 L 156.71875 175.777344 L 157.816406 175.238281 C 158.703125 174.800781 159.050781 174.511719 159.648438 173.703125 C 160.917969 171.984375 161.390625 170.820312 161.449219 169.234375 C 161.5 167.886719 161.484375 167.832031 160.765625 166.363281 C 159.671875 164.125 158.125 162.792969 156.03125 162.28125 C 155.554688 162.164062 155.21875 161.945312 154.917969 161.550781 C 154.535156 161.050781 154.445312 160.664062 154.113281 158.121094 C 153.90625 156.546875 153.585938 154.75 153.402344 154.128906 C 152.6875 151.746094 152.582031 151.335938 152.257812 149.765625 C 151.863281 147.835938 151.542969 146.785156 151.050781 145.804688 C 150.851562 145.402344 150.507812 144.414062 150.285156 143.609375 C 150.066406 142.804688 149.554688 141.496094 149.15625 140.707031 C 148.753906 139.914062 148.382812 139.003906 148.328125 138.6875 C 148.273438 138.371094 147.890625 137.609375 147.480469 136.992188 C 147.070312 136.375 146.574219 135.472656 146.378906 134.984375 C 146.183594 134.496094 145.679688 133.609375 145.265625 133.015625 C 144.847656 132.425781 144.367188 131.621094 144.195312 131.234375 C 144.023438 130.84375 143.695312 130.3125 143.460938 130.046875 C 143.230469 129.785156 142.867188 129.234375 142.652344 128.820312 C 142.441406 128.410156 141.914062 127.609375 141.480469 127.042969 C 141.046875 126.480469 140.425781 125.597656 140.097656 125.082031 C 139.773438 124.566406 139.398438 124.105469 139.265625 124.054688 C 139.136719 124.003906 138.867188 123.699219 138.671875 123.375 C 137.8125 121.941406 130.878906 114.859375 129.410156 113.910156 C 128.964844 113.621094 128.492188 113.253906 128.359375 113.09375 C 128.226562 112.929688 127.632812 112.488281 127.042969 112.109375 C 126.453125 111.730469 125.921875 111.339844 125.859375 111.242188 C 125.800781 111.144531 125.191406 110.695312 124.511719 110.238281 C 123.828125 109.785156 123.050781 109.207031 122.785156 108.957031 C 122.519531 108.707031 121.945312 108.347656 121.511719 108.15625 C 121.078125 107.964844 120.402344 107.5625 120.007812 107.257812 C 119.609375 106.957031 118.730469 106.441406 118.046875 106.117188 C 117.363281 105.792969 116.589844 105.359375 116.324219 105.160156 C 116.054688 104.960938 115.199219 104.539062 114.414062 104.222656 C 113.632812 103.90625 112.777344 103.496094 112.515625 103.308594 C 111.921875 102.886719 110.21875 102.1875 109.789062 102.1875 C 109.609375 102.1875 108.761719 101.824219 107.898438 101.382812 C 106.792969 100.816406 105.914062 100.496094 104.941406 100.308594 C 104.183594 100.15625 102.832031 99.761719 101.945312 99.429688 C 100.152344 98.753906 99.980469 98.714844 97.359375 98.386719 C 95.277344 98.125 94.753906 97.886719 94.753906 97.1875 C 94.753906 96.742188 95.136719 96.253906 97.226562 94.027344 C 97.390625 93.847656 97.621094 93.523438 97.738281 93.300781 C 98.042969 92.714844 98.195312 90.785156 98.0625 89.1875 C 97.964844 88.023438 97.867188 87.683594 97.453125 87.054688 C 96.664062 85.867188 95.527344 84.835938 94.160156 84.070312 L 92.894531 83.363281 L 82.878906 83.328125 C 75.34375 83.304688 72.738281 83.34375 72.367188 83.492188 M 80.535156 110.765625 C 77.941406 110.855469 75.042969 111.121094 71.730469 111.574219 C 70.308594 111.769531 68.695312 112.164062 67.207031 112.683594 C 66.675781 112.871094 65.476562 113.199219 64.542969 113.417969 C 63.457031 113.667969 62.332031 114.070312 61.425781 114.527344 C 60.644531 114.921875 59.714844 115.296875 59.363281 115.355469 C 59.011719 115.414062 58.195312 115.808594 57.550781 116.226562 C 56.90625 116.648438 56.015625 117.117188 55.574219 117.265625 C 55.132812 117.417969 54.359375 117.832031 53.851562 118.1875 C 53.34375 118.542969 52.507812 119.042969 51.988281 119.300781 C 51.46875 119.558594 50.902344 119.925781 50.726562 120.121094 C 50.550781 120.316406 50.066406 120.648438 49.652344 120.859375 C 49.242188 121.066406 48.566406 121.53125 48.15625 121.886719 C 47.742188 122.242188 47.0625 122.765625 46.644531 123.050781 C 43.972656 124.859375 36.894531 132.234375 35.332031 134.832031 C 35.140625 135.148438 34.832031 135.546875 34.640625 135.71875 C 34.449219 135.894531 34.109375 136.398438 33.886719 136.839844 C 33.664062 137.285156 33.261719 137.894531 33 138.199219 C 32.738281 138.5 32.234375 139.34375 31.886719 140.074219 C 31.539062 140.804688 31.113281 141.527344 30.945312 141.679688 C 30.773438 141.835938 30.367188 142.65625 30.035156 143.503906 C 29.707031 144.355469 29.234375 145.382812 28.980469 145.792969 C 28.730469 146.199219 28.347656 147.152344 28.128906 147.90625 C 27.914062 148.664062 27.46875 149.898438 27.144531 150.65625 C 26.785156 151.496094 26.34375 153.027344 26.003906 154.613281 C 25.699219 156.035156 25.269531 157.851562 25.042969 158.652344 C 24.507812 160.5625 24.519531 161.019531 25.105469 161.679688 L 25.578125 162.207031 L 139.855469 162.207031 L 140.347656 161.65625 C 140.800781 161.148438 140.832031 161.039062 140.757812 160.203125 C 140.710938 159.703125 140.515625 158.863281 140.320312 158.328125 C 139.703125 156.625 139.339844 155.300781 139.019531 153.601562 C 138.828125 152.574219 138.5 151.5 138.152344 150.773438 C 137.847656 150.132812 137.445312 149.035156 137.257812 148.339844 C 136.867188 146.890625 136.519531 146.007812 136.203125 145.652344 C 136.082031 145.515625 135.714844 144.714844 135.390625 143.867188 C 135.066406 143.023438 134.597656 142.042969 134.347656 141.6875 C 134.097656 141.332031 133.636719 140.53125 133.324219 139.910156 C 133.011719 139.289062 132.527344 138.496094 132.246094 138.144531 C 131.96875 137.796875 131.597656 137.214844 131.425781 136.851562 C 130.738281 135.417969 125.566406 129.15625 123.59375 127.367188 C 123.328125 127.128906 122.453125 126.335938 121.652344 125.605469 C 119.839844 123.957031 117.144531 121.816406 116.035156 121.144531 C 115.570312 120.863281 114.957031 120.4375 114.667969 120.203125 C 114.382812 119.964844 113.835938 119.621094 113.457031 119.4375 C 113.078125 119.253906 112.1875 118.726562 111.476562 118.261719 C 110.765625 117.796875 109.964844 117.367188 109.699219 117.304688 C 109.433594 117.242188 108.65625 116.828125 107.976562 116.382812 C 107.296875 115.9375 106.351562 115.472656 105.875 115.347656 C 105.402344 115.226562 104.429688 114.832031 103.71875 114.476562 C 103.011719 114.125 101.683594 113.648438 100.773438 113.417969 C 99.867188 113.191406 98.484375 112.792969 97.707031 112.535156 C 95.804688 111.902344 94.34375 111.621094 91.359375 111.316406 C 89.984375 111.175781 88.726562 111.019531 88.566406 110.972656 C 87.972656 110.792969 83.269531 110.671875 80.535156 110.765625 M 201.144531 165.203125 C 200.078125 165.265625 198.367188 165.4375 197.347656 165.578125 C 196.324219 165.71875 194.617188 165.914062 193.550781 166.007812 C 190.21875 166.304688 188.757812 166.59375 187.21875 167.273438 C 186.433594 167.617188 185.222656 168.03125 184.523438 168.195312 C 183.824219 168.355469 182.945312 168.683594 182.570312 168.921875 C 182.191406 169.164062 181.203125 169.660156 180.367188 170.03125 C 179.535156 170.402344 178.703125 170.835938 178.527344 170.992188 C 178.347656 171.152344 177.800781 171.523438 177.3125 171.816406 C 176.359375 172.386719 173.9375 174.382812 172.421875 175.847656 C 171.355469 176.878906 168.691406 180.109375 168.023438 181.191406 C 167.773438 181.589844 167.335938 182.179688 167.046875 182.503906 C 166.757812 182.828125 166.46875 183.265625 166.40625 183.472656 C 166.339844 183.683594 165.898438 184.378906 165.417969 185.023438 C 164.941406 185.664062 164.390625 186.5 164.195312 186.878906 C 164.003906 187.261719 163.632812 187.820312 163.371094 188.121094 C 163.113281 188.421875 162.761719 188.996094 162.589844 189.398438 C 162.417969 189.796875 161.941406 190.605469 161.53125 191.191406 C 161.121094 191.777344 160.605469 192.65625 160.390625 193.144531 C 160.175781 193.632812 159.863281 194.179688 159.699219 194.355469 C 159.535156 194.535156 159.027344 195.40625 158.570312 196.296875 C 158.113281 197.183594 157.609375 198.058594 157.445312 198.234375 C 157.28125 198.414062 156.921875 199.0625 156.644531 199.679688 C 156.367188 200.292969 155.863281 201.167969 155.519531 201.617188 C 155.179688 202.066406 154.816406 202.691406 154.710938 203 C 154.605469 203.3125 154.132812 204.183594 153.65625 204.941406 C 153.183594 205.695312 152.738281 206.496094 152.675781 206.714844 C 152.609375 206.9375 152.160156 207.746094 151.679688 208.511719 C 151.195312 209.277344 150.722656 210.1875 150.628906 210.53125 C 150.535156 210.878906 150.246094 211.425781 149.988281 211.753906 C 149.726562 212.078125 149.203125 213.023438 148.816406 213.855469 C 148.433594 214.683594 147.992188 215.464844 147.835938 215.59375 C 147.683594 215.722656 147.242188 216.507812 146.851562 217.339844 C 146.460938 218.171875 145.960938 219.070312 145.734375 219.339844 C 145.507812 219.609375 145.277344 220.023438 145.21875 220.261719 C 145.082031 220.832031 143.921875 223.144531 143.707031 223.277344 C 143.617188 223.332031 143.359375 223.738281 143.140625 224.171875 C 142.570312 225.296875 141.777344 225.628906 141.152344 225.003906 C 140.890625 224.742188 140.511719 223.457031 140.253906 221.953125 C 140.203125 221.667969 139.875 220.832031 139.523438 220.09375 C 139.171875 219.355469 138.753906 218.171875 138.597656 217.460938 C 138.441406 216.75 138.003906 215.507812 137.628906 214.703125 C 137.253906 213.898438 136.898438 212.953125 136.835938 212.605469 C 136.671875 211.644531 136.273438 210.269531 135.949219 209.542969 C 135.265625 208.003906 135.09375 207.503906 134.648438 205.765625 C 134.386719 204.75 134.117188 203.84375 134.042969 203.746094 C 133.734375 203.328125 133.046875 201.355469 132.710938 199.929688 C 132.511719 199.085938 132.101562 197.894531 131.796875 197.28125 C 131.488281 196.671875 131.132812 195.65625 131.003906 195.03125 C 130.722656 193.6875 130.390625 192.730469 129.59375 190.964844 C 129.273438 190.253906 129.007812 189.527344 129.007812 189.347656 C 129.003906 188.621094 128.515625 186.753906 128.226562 186.367188 C 128.058594 186.140625 127.675781 185.8125 127.371094 185.632812 C 126.835938 185.316406 126.5 185.308594 112.6875 185.273438 C 104.914062 185.253906 89.070312 185.230469 77.488281 185.226562 C 58.378906 185.214844 56.398438 185.238281 56.136719 185.472656 C 55.472656 186.074219 55.644531 187.152344 56.589844 188.285156 C 56.929688 188.691406 57.398438 189.351562 57.628906 189.753906 C 58.285156 190.871094 60.207031 192.492188 61.875 193.332031 C 64.195312 194.5 64.453125 194.554688 69.632812 195.015625 C 70.164062 195.0625 71.183594 195.207031 71.894531 195.332031 C 77.984375 196.402344 79.179688 196.5625 84.414062 197.019531 C 86.425781 197.191406 87.265625 197.320312 89.261719 197.742188 C 89.839844 197.867188 90.929688 198.09375 91.683594 198.246094 C 92.4375 198.398438 93.21875 198.628906 93.417969 198.757812 C 93.960938 199.117188 94.429688 199.980469 94.429688 200.628906 C 94.429688 201.324219 94.851562 204.671875 95.09375 205.910156 C 95.191406 206.398438 95.441406 207.597656 95.652344 208.574219 C 96.066406 210.492188 96.253906 211.773438 96.535156 214.550781 C 96.753906 216.71875 97.074219 218.460938 97.59375 220.324219 C 97.808594 221.097656 98.128906 222.9375 98.304688 224.417969 C 98.480469 225.894531 98.667969 227.371094 98.722656 227.695312 C 98.921875 228.898438 99.292969 230.683594 99.367188 230.800781 C 99.507812 231.035156 100.050781 233.949219 100.160156 235.070312 C 100.421875 237.824219 100.769531 239.820312 101.644531 243.632812 C 101.769531 244.167969 102.046875 246.011719 102.265625 247.730469 C 102.484375 249.449219 102.777344 251.339844 102.917969 251.929688 C 103.058594 252.519531 103.347656 253.730469 103.5625 254.621094 C 103.777344 255.507812 104.066406 257.253906 104.203125 258.496094 C 104.476562 260.90625 104.65625 261.824219 105.410156 264.636719 C 105.671875 265.613281 106.035156 267.503906 106.21875 268.835938 C 106.4375 270.414062 106.722656 271.738281 107.042969 272.632812 C 107.3125 273.398438 107.742188 275.230469 108 276.753906 C 108.257812 278.265625 108.628906 279.9375 108.820312 280.46875 C 109.015625 281.003906 109.453125 282.253906 109.792969 283.246094 C 110.148438 284.277344 110.722656 285.535156 111.128906 286.171875 C 111.523438 286.785156 111.96875 287.523438 112.117188 287.816406 C 112.269531 288.105469 112.804688 288.789062 113.3125 289.335938 C 113.816406 289.878906 114.339844 290.472656 114.46875 290.65625 C 114.601562 290.835938 114.996094 291.199219 115.351562 291.457031 C 115.707031 291.71875 116.3125 292.207031 116.691406 292.550781 C 117.074219 292.890625 117.957031 293.445312 118.65625 293.785156 C 119.351562 294.121094 120.179688 294.554688 120.488281 294.746094 C 121.332031 295.269531 122.378906 295.542969 124.882812 295.898438 C 127.699219 296.300781 129.667969 296.304688 132.15625 295.910156 C 134.988281 295.460938 135.507812 295.316406 136.960938 294.585938 C 137.683594 294.222656 138.585938 293.832031 138.964844 293.71875 C 139.34375 293.605469 140.222656 293.113281 140.914062 292.628906 C 141.605469 292.144531 142.410156 291.625 142.703125 291.472656 C 142.996094 291.324219 143.632812 290.839844 144.121094 290.398438 C 144.605469 289.957031 145.058594 289.597656 145.128906 289.597656 C 145.316406 289.597656 149.707031 285.226562 152.996094 281.765625 C 154.597656 280.082031 156.277344 278.339844 156.730469 277.890625 C 157.1875 277.445312 158.558594 275.988281 159.785156 274.652344 C 161.007812 273.320312 162.273438 271.972656 162.59375 271.660156 C 162.914062 271.347656 164.519531 269.675781 166.164062 267.949219 C 167.808594 266.21875 170.105469 263.820312 171.265625 262.621094 C 172.425781 261.417969 173.507812 260.234375 173.671875 259.984375 C 174.085938 259.347656 174.765625 259.023438 175.273438 259.21875 C 176.214844 259.574219 176.144531 256.933594 176.265625 296.140625 C 176.378906 333.429688 176.367188 332.753906 176.964844 333.125 C 177.039062 333.171875 203.03125 333.222656 234.71875 333.238281 C 283.664062 333.261719 292.378906 333.230469 292.609375 333.039062 C 293.34375 332.429688 293.3125 334.417969 293.3125 287.171875 C 293.3125 248.339844 293.34375 242.507812 293.550781 242.109375 C 293.824219 241.582031 294.085938 241.453125 294.875 241.453125 C 295.347656 241.453125 295.59375 241.605469 296.375 242.382812 C 297.273438 243.277344 298.121094 243.96875 299.773438 245.167969 C 300.574219 245.746094 301.441406 246.464844 302.90625 247.757812 C 303.363281 248.160156 304.097656 248.773438 304.542969 249.121094 C 304.988281 249.46875 305.765625 250.121094 306.277344 250.570312 C 308.035156 252.125 308.703125 252.683594 309.304688 253.085938 C 309.867188 253.464844 310.550781 254.027344 312.351562 255.601562 C 312.765625 255.960938 313.359375 256.429688 313.671875 256.640625 C 313.980469 256.847656 314.570312 257.324219 314.976562 257.699219 C 315.382812 258.070312 316.089844 258.644531 316.546875 258.972656 C 317.863281 259.921875 317.980469 261.207031 316.851562 262.367188 C 316.074219 263.160156 307.660156 271.378906 305.949219 273.011719 C 303.53125 275.320312 303.8125 271.390625 303.816406 302.9375 C 303.824219 331.90625 303.808594 331.28125 304.550781 331.28125 C 304.699219 331.28125 306.257812 329.84375 308.015625 328.089844 C 309.777344 326.335938 313.558594 322.609375 316.417969 319.808594 C 318.785156 317.496094 321.152344 315.179688 323.515625 312.863281 C 324.554688 311.839844 326.277344 310.167969 327.339844 309.148438 C 332.90625 303.800781 349.148438 287.832031 358.402344 278.609375 C 363.9375 273.097656 365.074219 271.847656 365.53125 270.777344 C 365.683594 270.421875 365.988281 269.910156 366.207031 269.644531 C 366.683594 269.066406 367.261719 267.847656 367.589844 266.738281 C 367.71875 266.292969 367.886719 265.855469 367.957031 265.769531 C 368.027344 265.679688 368.277344 265.132812 368.511719 264.554688 C 369.15625 262.972656 369.445312 260.730469 369.445312 257.285156 C 369.445312 253.296875 369.167969 251.527344 368.203125 249.308594 C 367.800781 248.382812 367.472656 247.527344 367.472656 247.40625 C 367.472656 247.089844 366.539062 245.167969 366.109375 244.601562 C 365.910156 244.335938 365.65625 243.859375 365.554688 243.539062 C 365.449219 243.21875 365.175781 242.710938 364.949219 242.40625 C 364.722656 242.105469 364.027344 241.148438 363.410156 240.28125 C 362.792969 239.414062 362.226562 238.707031 362.152344 238.707031 C 362.082031 238.707031 361.816406 238.398438 361.566406 238.019531 C 361.320312 237.640625 360.671875 236.832031 360.132812 236.21875 C 358.175781 234.003906 355.902344 231.5 355.050781 230.628906 C 354.570312 230.140625 353.195312 228.683594 351.992188 227.398438 C 349.347656 224.5625 347.464844 222.582031 344.457031 219.472656 C 342.132812 217.0625 340.785156 215.621094 338.792969 213.414062 C 338.171875 212.726562 337.371094 211.855469 337.015625 211.484375 C 336.660156 211.109375 335.898438 210.269531 335.320312 209.617188 C 333.675781 207.761719 332.324219 206.304688 330.378906 204.292969 C 329.390625 203.269531 327.609375 201.382812 326.421875 200.09375 C 325.234375 198.804688 323.023438 196.441406 321.507812 194.84375 C 317.757812 190.886719 314.046875 186.921875 312.296875 184.992188 C 308.808594 181.15625 305.828125 178.121094 305.550781 178.121094 C 305.476562 178.121094 305.074219 177.804688 304.65625 177.421875 C 304.238281 177.035156 303.300781 176.273438 302.574219 175.722656 C 301.84375 175.175781 301.207031 174.65625 301.152344 174.566406 C 301.097656 174.480469 300.566406 174.113281 299.96875 173.75 C 299.375 173.390625 298.671875 172.945312 298.402344 172.765625 C 296.96875 171.800781 294.386719 170.414062 293.394531 170.078125 C 292.773438 169.867188 291.828125 169.472656 291.292969 169.203125 C 290.046875 168.570312 289.226562 168.324219 287.335938 168.015625 C 286.492188 167.878906 285.109375 167.558594 284.265625 167.308594 C 281.335938 166.425781 278.089844 166.167969 269.929688 166.167969 L 264.238281 166.164062 L 262.578125 167.675781 C 261.667969 168.503906 259.648438 170.324219 258.09375 171.71875 C 256.539062 173.113281 254.726562 174.742188 254.070312 175.339844 L 252.050781 177.171875 C 251.265625 177.882812 250.1875 178.835938 248.140625 180.625 C 247.632812 181.070312 246.15625 182.414062 244.859375 183.617188 C 243.5625 184.820312 241.449219 186.738281 240.160156 187.886719 C 238.871094 189.03125 237.191406 190.574219 236.425781 191.316406 C 235.523438 192.1875 234.902344 192.660156 234.671875 192.660156 C 234.089844 192.660156 232.433594 191.691406 231.929688 191.058594 C 230.933594 189.804688 207.382812 166.363281 206.472656 165.722656 C 205.53125 165.054688 205.472656 165.039062 204.292969 165.058594 C 203.625 165.074219 202.210938 165.136719 201.144531 165.203125 M 191.4375 215.871094 C 189.722656 216.136719 189.367188 216.421875 188.070312 218.582031 L 187.492188 219.542969 L 187.492188 232.925781 L 187.996094 233.980469 C 188.617188 235.289062 189.605469 236.296875 190.652344 236.699219 C 191.410156 236.992188 192.132812 237.011719 205.214844 237.054688 L 218.984375 237.097656 L 219.980469 236.679688 C 221.902344 235.871094 222.386719 235.21875 222.710938 232.996094 C 222.992188 231.09375 222.785156 219.550781 222.449219 218.347656 C 222.105469 217.117188 221.449219 216.476562 220.128906 216.082031 C 219.128906 215.785156 218.390625 215.769531 205.863281 215.726562 C 196.429688 215.695312 192.300781 215.738281 191.4375 215.871094 " fill-opacity="1" fill-rule="evenodd"/></svg>